<svg width="554" height="191" viewBox="0 0 554 191" fill="none" xmlns="http://www.w3.org/2000/svg">
<path d="M24.4275 161.847C24.1616 160.606 24.1674 97.923 24.4213 96.7732C24.6797 96.7283 24.9663 96.6613 25.2566 96.6333C25.5146 96.6083 25.7768 96.6259 26.0371 96.6259C44.3046 96.6258 62.5721 96.618 80.8396 96.632C84.8072 96.6351 88.7178 97.1222 92.5213 98.3054C94.3944 98.8881 96.1744 99.6792 97.8183 100.763C102.087 103.578 104.253 107.578 104.492 112.656C104.572 114.357 104.46 116.048 104.06 117.707C103.279 120.948 101.551 123.497 98.5881 125.129C98.3724 125.248 98.1716 125.395 97.7894 125.64C98.264 125.742 98.5415 125.818 98.8241 125.86C103.064 126.487 106.957 127.992 110.417 130.537C113.128 132.533 115.249 135.009 116.417 138.23C117.426 141.015 117.38 143.868 116.942 146.726C116.083 152.331 112.929 156.219 107.869 158.629C104.699 160.139 101.321 160.898 97.8673 161.368C94.8531 161.778 91.8197 161.921 88.7802 161.921C67.8659 161.925 46.9515 161.924 26.0372 161.92C25.4881 161.92 24.939 161.871 24.4275 161.847ZM45.2564 145.368C45.9131 145.391 46.4221 145.425 46.9311 145.425C60.0298 145.428 73.1285 145.431 86.2272 145.419C87.2218 145.418 88.2246 145.363 89.2084 145.224C89.9296 145.123 90.6523 144.908 91.3277 144.63C92.6157 144.1 93.3993 143.113 93.7101 141.738C94.3533 138.893 92.9636 136.48 90.1751 135.684C88.7874 135.288 87.3564 135.218 85.9211 135.218C76.7261 135.218 67.531 135.218 58.3359 135.218C54.4757 135.218 50.6155 135.215 46.7553 135.222C46.2949 135.222 45.8346 135.273 45.2494 135.308C45.2283 138.676 45.2259 141.92 45.2564 145.368ZM45.4144 122.253C45.8856 122.276 46.3905 122.322 46.8954 122.322C56.5198 122.326 66.1441 122.328 75.7685 122.321C76.5477 122.32 77.3378 122.325 78.1031 122.202C78.9513 122.067 79.81 121.872 80.6051 121.554C82.1002 120.957 82.9076 119.766 83.1259 118.182C83.1848 117.755 83.1907 117.315 83.1738 116.883C83.0976 114.943 82.1354 113.547 80.291 112.983C79.312 112.684 78.2503 112.531 77.2252 112.528C67.0374 112.496 56.8494 112.507 46.6614 112.511C46.2394 112.511 45.8173 112.553 45.4258 112.574C45.1782 113.729 45.1687 120.976 45.4144 122.253Z" fill="#001633"/>
<path d="M529.703 139.861C528.996 139.884 528.441 139.918 527.886 139.918C508.924 139.921 489.961 139.92 470.999 139.923C470.444 139.923 469.89 139.958 469.248 139.98C469.305 140.383 469.316 140.677 469.39 140.954C470.262 144.216 472.259 146.551 475.253 148.057C477.372 149.123 479.64 149.702 481.973 150.014C487.69 150.776 493.393 150.765 499.06 149.562C501.063 149.137 503.019 148.536 504.811 147.535C505.903 146.926 506.966 146.223 507.916 145.414C508.533 144.889 509.052 144.796 509.792 144.989C512.353 145.656 514.929 146.265 517.499 146.9C520.447 147.629 523.396 148.358 526.342 149.094C526.704 149.184 527.053 149.319 527.523 149.471C527.247 149.972 527.055 150.354 526.833 150.717C525.302 153.208 523.233 155.16 520.795 156.737C517.998 158.546 514.94 159.753 511.747 160.643C508.394 161.578 504.975 162.169 501.516 162.514C497.285 162.936 493.049 163.298 488.79 163.22C483.056 163.115 477.348 162.703 471.705 161.641C467.938 160.932 464.293 159.822 460.885 158.014C454.879 154.825 451.134 149.905 449.713 143.256C448.6 138.043 448.614 132.808 449.781 127.602C451.19 121.314 454.705 116.572 460.335 113.424C464.017 111.365 468.005 110.212 472.12 109.436C477.039 108.508 482.014 108.175 487.009 108.11C492.217 108.041 497.422 108.114 502.608 108.671C507.02 109.145 511.372 109.904 515.536 111.509C518.232 112.548 520.72 113.936 522.856 115.913C525.58 118.433 527.298 121.554 528.316 125.09C529.211 128.201 529.571 131.391 529.69 134.614C529.738 135.916 529.753 137.22 529.77 138.523C529.775 138.907 529.733 139.291 529.703 139.861ZM509.175 129.17C509.212 129.012 509.263 128.922 509.246 128.848C509.185 128.597 509.121 128.343 509.023 128.105C508.185 126.053 506.736 124.547 504.838 123.454C503.168 122.492 501.365 121.875 499.481 121.518C493.2 120.328 486.896 120.362 480.596 121.322C478.317 121.669 476.12 122.349 474.117 123.55C472.235 124.679 470.827 126.221 470.007 128.272C469.9 128.538 469.871 128.836 469.806 129.121C471.09 129.365 501.286 129.481 508.34 129.278C508.628 129.27 508.915 129.204 509.175 129.17Z" fill="#001633"/>
<path d="M204.475 139.978C204.943 142.221 205.78 144.037 207.209 145.571C209.083 147.584 211.466 148.712 214.074 149.346C215.839 149.775 217.646 150.101 219.454 150.267C224.356 150.718 229.249 150.652 234.094 149.625C236.183 149.181 238.232 148.591 240.102 147.547C241.231 146.916 242.295 146.151 243.317 145.355C243.802 144.977 244.195 144.76 244.828 144.917C250.554 146.348 256.287 147.75 262.016 149.169C262.257 149.229 262.479 149.365 262.817 149.511C262.579 149.948 262.393 150.33 262.172 150.69C260.618 153.219 258.517 155.199 256.033 156.791C253.228 158.589 250.162 159.78 246.97 160.67C243.279 161.7 239.507 162.286 235.699 162.634C231.81 162.988 227.917 163.309 224.006 163.218C217.881 163.075 211.783 162.655 205.773 161.381C202.921 160.776 200.151 159.903 197.503 158.665C190.713 155.488 186.428 150.292 184.958 142.889C183.929 137.708 183.957 132.516 185.162 127.361C186.775 120.458 190.914 115.606 197.264 112.587C200.982 110.819 204.926 109.824 208.97 109.169C213.393 108.453 217.85 108.167 222.323 108.109C227.532 108.042 232.739 108.113 237.926 108.669C242.338 109.142 246.691 109.901 250.856 111.508C253.886 112.677 256.641 114.285 258.921 116.644C261.763 119.585 263.303 123.18 264.143 127.117C264.992 131.096 265.115 135.134 265.039 139.184C265.035 139.352 264.977 139.519 264.932 139.751C264.639 139.807 264.353 139.89 264.063 139.909C263.631 139.937 263.196 139.92 262.762 139.92C244.013 139.92 225.264 139.92 206.515 139.922C205.915 139.922 205.315 139.954 204.475 139.978ZM244.561 129.138C244.57 128.94 244.591 128.851 244.575 128.771C244.548 128.644 244.499 128.522 244.454 128.4C243.69 126.317 242.294 124.761 240.426 123.613C238.32 122.32 235.986 121.646 233.575 121.279C227.793 120.399 221.998 120.398 216.215 121.27C213.845 121.628 211.558 122.294 209.472 123.529C207.707 124.574 206.342 125.991 205.497 127.877C205.326 128.26 205.217 128.67 205.075 129.078C206.155 129.331 243.24 129.369 244.561 129.138Z" fill="#001633"/>
<path d="M355.112 140.2C354.429 140.225 353.833 140.264 353.237 140.265C334.314 140.268 315.391 140.267 296.468 140.269C295.917 140.269 295.366 140.287 294.688 140.3C295.18 142.831 296.23 144.867 298.002 146.519C299.095 147.538 300.369 148.274 301.737 148.856C303.833 149.749 306.036 150.22 308.284 150.486C313.442 151.097 318.596 151.101 323.707 150.086C325.317 149.766 326.907 149.285 328.459 148.744C330.357 148.082 332.09 147.08 333.573 145.699C333.983 145.317 334.372 145.101 334.963 145.249C340.729 146.694 346.499 148.119 352.267 149.555C352.471 149.605 352.662 149.705 352.942 149.814C352.818 150.131 352.746 150.417 352.603 150.663C350.738 153.875 348.041 156.208 344.829 157.986C341.22 159.984 337.321 161.153 333.299 161.931C326.665 163.215 319.956 163.558 313.216 163.473C309.352 163.425 305.498 163.182 301.663 162.7C297.824 162.218 294.04 161.465 290.394 160.127C287.104 158.92 284.06 157.287 281.467 154.888C278.13 151.799 276.161 147.939 275.214 143.54C274.015 137.967 274.097 132.406 275.584 126.886C277.187 120.933 280.768 116.557 286.15 113.624C289.853 111.606 293.85 110.48 297.968 109.725C302.849 108.829 307.785 108.525 312.735 108.436C317.466 108.351 322.194 108.468 326.91 108.904C331.633 109.339 336.301 110.063 340.76 111.766C341.933 112.214 343.085 112.736 344.196 113.321C348.887 115.791 351.981 119.612 353.594 124.649C354.731 128.2 355.135 131.865 355.209 135.575C355.232 136.704 355.221 137.835 355.209 138.965C355.205 139.343 355.151 139.719 355.112 140.2ZM334.817 129.628C334.701 128.574 334.324 127.89 333.929 127.223C332.776 125.276 331.04 124.018 329.011 123.12C327.13 122.288 325.147 121.816 323.123 121.528C318.286 120.838 313.434 120.835 308.582 121.321C306.026 121.577 303.517 122.083 301.147 123.125C298.586 124.252 296.601 125.978 295.534 128.632C295.428 128.895 295.397 129.189 295.293 129.628C308.495 129.628 321.582 129.628 334.817 129.628Z" fill="#2B7DE1"/>
<path d="M441.08 109.771C441.107 110.25 441.151 110.674 441.152 111.097C441.157 114.575 441.126 118.053 441.175 121.531C441.188 122.471 440.895 123.01 440.056 123.477C430.797 128.621 421.56 133.806 412.317 138.98C406.787 142.076 401.256 145.171 395.727 148.27C395.438 148.432 395.168 148.628 394.613 148.986C396.635 149.114 398.345 149.04 400.051 149.053C401.744 149.067 403.436 149.056 405.129 149.056C406.865 149.056 408.601 149.056 410.337 149.056C412.073 149.056 413.809 149.056 415.545 149.056C417.238 149.056 418.931 149.056 420.623 149.056C422.359 149.056 424.095 149.056 425.831 149.056C427.567 149.056 429.303 149.056 431.039 149.056C432.732 149.056 434.425 149.056 436.117 149.056C437.847 149.056 439.577 149.056 441.33 149.056C441.418 149.423 441.527 149.668 441.527 149.913C441.538 153.739 441.536 157.564 441.531 161.39C441.531 161.6 441.479 161.811 441.44 162.096C441.129 162.152 440.846 162.223 440.56 162.247C440.258 162.273 439.953 162.255 439.649 162.255C414.737 162.255 389.824 162.255 364.912 162.255C364.355 162.255 363.799 162.255 363.125 162.255C363.087 161.714 363.033 161.296 363.032 160.877C363.026 157.094 363.059 153.312 363.007 149.53C362.994 148.565 363.358 148.071 364.178 147.619C378.545 139.691 392.896 131.733 407.249 123.78C407.85 123.448 408.447 123.108 409.298 122.63C408.812 122.531 408.596 122.461 408.376 122.449C407.987 122.428 407.596 122.442 407.205 122.442C393.36 122.442 379.515 122.442 365.67 122.439C365.116 122.439 364.562 122.405 364.039 122.387C363.782 121.198 363.784 110.929 364.016 109.815C364.043 109.79 364.071 109.754 364.107 109.732C364.143 109.711 364.187 109.695 364.228 109.692C364.53 109.669 364.832 109.631 365.134 109.631C390.263 109.634 415.392 109.64 440.521 109.65C440.647 109.65 440.772 109.702 441.08 109.771Z" fill="#2B7DE1"/>
<path d="M307.193 63.3176C307.757 63.2755 308.133 63.2218 308.509 63.2233C312.198 63.2377 315.887 63.2437 319.575 63.2865C324.653 63.3453 329.341 64.7302 333.558 67.5849C334.487 68.2137 335.342 68.9695 336.162 69.7411C342.075 75.309 347.97 80.8967 353.872 86.4757C354.183 86.7696 354.514 87.0426 354.892 87.3751C355.229 87.0914 355.532 86.8609 355.807 86.6009C369.379 73.7714 382.95 60.9395 396.52 48.1077C398.256 46.4664 400.013 44.8476 401.721 43.1776C405.549 39.4341 409.964 36.5357 414.711 34.1316C421.047 30.9234 427.758 28.9268 434.806 28.0759C436.522 27.8687 438.243 27.699 439.937 27.5146C440.185 28.0858 439.765 28.2304 439.547 28.4385C435.462 32.3372 431.369 36.2278 427.275 40.1167C405.512 60.7877 383.747 81.457 361.986 102.13C360.065 103.954 358.164 105.801 356.248 107.631C355.876 107.986 355.474 108.309 355.108 108.628C354.118 108.015 308.136 64.5622 307.193 63.3176Z" fill="#2B7DE1"/>
<path d="M126.75 109.458C128.142 109.173 143.849 109.191 144.981 109.458C145.445 112.217 145.535 115.072 145.977 117.947C146.215 117.833 146.351 117.805 146.434 117.722C149.278 114.911 152.752 113.155 156.435 111.775C161.425 109.905 166.597 108.824 171.899 108.372C173.54 108.232 175.19 108.186 176.836 108.111C177.088 108.099 177.343 108.158 177.714 108.196C177.91 109.546 177.786 110.884 177.808 112.212C177.83 113.559 177.813 114.907 177.813 116.255C177.813 117.603 177.816 118.951 177.812 120.299C177.808 121.638 177.797 122.978 177.788 124.417C177.241 124.453 176.818 124.501 176.395 124.507C172.618 124.559 168.846 124.687 165.093 125.151C161.339 125.615 157.623 126.258 154.065 127.604C152.186 128.314 150.427 129.231 148.881 130.546C148.102 131.209 147.741 131.937 147.746 133.009C147.788 142.052 147.77 151.095 147.77 160.139C147.77 160.653 147.77 161.168 147.77 161.767C147.334 161.829 147.006 161.915 146.678 161.916C140.428 161.924 134.178 161.924 127.928 161.918C127.593 161.917 127.258 161.849 126.875 161.808C126.828 161.452 126.755 161.159 126.754 160.867C126.749 143.746 126.75 126.625 126.75 109.458Z" fill="#001633"/>
</svg>
